<svg xmlns="http://www.w3.org/2000/svg" viewBox="0 0 220 100" fill="none">
  <!-- CNC centro de maquinado - vista frontal -->
  <rect x="4" y="88" width="212" height="6" fill="#1e2530" stroke="#5a6a7f"/>
  <rect x="12" y="22" width="140" height="66" rx="3" fill="#3d4a5c" stroke="#8a98a8" stroke-width="1.5"/>
  <path d="M12 22l10-10h120l10 10" fill="#4a5668" stroke="#9aa8b8"/>
  <line x1="82" y1="22" x2="82" y2="88" stroke="#6a7a8f" stroke-width="1.5"/>
  <!-- Puertas y ventanas -->
  <rect x="20" y="30" width="56" height="40" rx="1" fill="#101820" stroke="#f0c040" stroke-width="1.5"/>
  <rect x="88" y="30" width="56" height="40" rx="1" fill="#101820" stroke="#f0c040" stroke-width="1.5"/>
  <rect x="24" y="34" width="48" height="32" fill="#0a2840" stroke="#5eb8f0" stroke-width="1"/>
  <rect x="92" y="34" width="48" height="32" fill="#0a2840" stroke="#5eb8f0" stroke-width="1"/>
  <!-- Husillo en ventana -->
  <circle cx="82" cy="68" r="7" fill="#141c28" stroke="#f0c040" stroke-width="1.5"/>
  <rect x="78" y="68" width="8" height="12" fill="#6a7a8f"/>
  <rect x="24" y="74" width="116" height="6" fill="#455468" stroke="#8a98a8"/>
  <!-- Panel Fanuc -->
  <rect x="158" y="16" width="50" height="72" rx="2" fill="#2a3545" stroke="#f0c040" stroke-width="1.5"/>
  <rect x="164" y="22" width="38" height="26" rx="1" fill="#080f18" stroke="#5eb8f0"/>
  <text x="183" y="38" text-anchor="middle" fill="#5eb8f0" font-size="8" font-family="monospace">CNC</text>
  <rect x="166" y="52" width="10" height="10" rx="1" fill="#3a4555" stroke="#7a8a9f"/>
  <rect x="180" y="52" width="10" height="10" rx="1" fill="#3a4555" stroke="#7a8a9f"/>
  <rect x="166" y="66" width="10" height="10" rx="1" fill="#f0c040"/>
  <rect x="180" y="66" width="10" height="10" rx="1" fill="#3a4555" stroke="#7a8a9f"/>
  <rect x="166" y="78" width="24" height="6" rx="1" fill="#141c28" stroke="#6a7a8f"/>
  <circle cx="170" cy="12" r="3" fill="#22c55e"/>
  <circle cx="182" cy="12" r="3" fill="#f0c040"/>
  <path d="M16 88l8 6h116l8-6" fill="#2a3545" stroke="#5a6a7f"/>
</svg>
